{
  "accessors": [
    {
      "bufferView": 2,
      "componentType": 5126,
      "count": 2061,
      "max": [
        23.659950256347656,
        23.613262176513672,
        109.03294372558594
      ],
      "min": [
        -23.659208297729492,
        -23.613262176513672,
        -156.79168701171875
      ],
      "type": "VEC3"
    },
    {
      "bufferView": 2,
      "byteOffset": 24732,
      "componentType": 5126,
      "count": 2061,
      "max": [
        0.99995720386505127,
        0.99798411130905151,
        1
      ],
      "min": [
        -0.99995720386505127,
        -0.99798411130905151,
        -1
      ],
      "type": "VEC3"
    },
    {
      "bufferView": 3,
      "componentType": 5126,
      "count": 2061,
      "max": [
        1,
        1,
        0.99995708465576172,
        1
      ],
      "min": [
        -1,
        -1,
        -0.99995714426040649,
        -1
      ],
      "type": "VEC4"
    },
    {
      "bufferView": 1,
      "componentType": 5126,
      "count": 2061,
      "max": [
        1.0299999713897705,
        1
      ],
      "min": [
        0.00098660588264465332,
        0
      ],
      "type": "VEC2"
    },
    {
      "bufferView": 0,
      "componentType": 5125,
      "count": 11700,
      "max": [
        2060
      ],
      "min": [
        0
      ],
      "type": "SCALAR"
    },
    {
      "bufferView": 2,
      "byteOffset": 49464,
      "componentType": 5126,
      "count": 7844,
      "max": [
        75.172683715820312,
        75.172683715820312,
        -62.236839294433594
      ],
      "min": [
        -75.172683715820312,
        -75.172683715820312,
        -172.52005004882812
      ],
      "type": "VEC3"
    },
    {
      "bufferView": 2,
      "byteOffset": 143592,
      "componentType": 5126,
      "count": 7844,
      "max": [
        1,
        1,
        1
      ],
      "min": [
        -1,
        -1,
        -0.99999994039535522
      ],
      "type": "VEC3"
    },
    {
      "bufferView": 3,
      "byteOffset": 32976,
      "componentType": 5126,
      "count": 7844,
      "max": [
        1,
        1,
        1,
        1
      ],
      "min": [
        -1,
        -1,
        -0.9999701976776123,
        -1
      ],
      "type": "VEC4"
    },
    {
      "bufferView": 1,
      "byteOffset": 16488,
      "componentType": 5126,
      "count": 7844,
      "max": [
        1.0299999713897705,
        1
      ],
      "min": [
        0.00098660588264465332,
        0
      ],
      "type": "VEC2"
    },
    {
      "bufferView": 0,
      "byteOffset": 46800,
      "componentType": 5125,
      "count": 44400,
      "max": [
        7843
      ],
      "min": [
        0
      ],
      "type": "SCALAR"
    },
    {
      "bufferView": 2,
      "byteOffset": 237720,
      "componentType": 5126,
      "count": 2408,
      "max": [
        61.914516448974609,
        61.914516448974609,
        -89.748397827148438
      ],
      "min": [
        -61.914516448974609,
        -61.914516448974609,
        -148.48080444335938
      ],
      "type": "VEC3"
    },
    {
      "bufferView": 2,
      "byteOffset": 266616,
      "componentType": 5126,
      "count": 2408,
      "max": [
        1,
        1,
        0.98115170001983643
      ],
      "min": [
        -1,
        -1,
        -0.92217856645584106
      ],
      "type": "VEC3"
    },
    {
      "bufferView": 3,
      "byteOffset": 158480,
      "componentType": 5126,
      "count": 2408,
      "max": [
        1,
        1,
        1,
        1
      ],
      "min": [
        -1,
        -1,
        -1,
        -1
      ],
      "type": "VEC4"
    },
    {
      "bufferView": 1,
      "byteOffset": 79240,
      "componentType": 5126,
      "count": 2408,
      "max": [
        1,
        1
      ],
      "min": [
        -5.9604644775390625e-08,
        0
      ],
      "type": "VEC2"
    },
    {
      "bufferView": 0,
      "byteOffset": 224400,
      "componentType": 5125,
      "count": 11712,
      "max": [
        2407
      ],
      "min": [
        0
      ],
      "type": "SCALAR"
    },
    {
      "bufferView": 2,
      "byteOffset": 295512,
      "componentType": 5126,
      "count": 15688,
      "max": [
        46.320507049560547,
        46.690891265869141,
        -90.840255737304688
      ],
      "min": [
        -46.576808929443359,
        -46.206428527832031,
        -115.62886810302734
      ],
      "type": "VEC3"
    },
    {
      "bufferView": 2,
      "byteOffset": 483768,
      "componentType": 5126,
      "count": 15688,
      "max": [
        1,
        1,
        1
      ],
      "min": [
        -1,
        -1,
        -0.99999970197677612
      ],
      "type": "VEC3"
    },
    {
      "bufferView": 3,
      "byteOffset": 197008,
      "componentType": 5126,
      "count": 15688,
      "max": [
        1,
        1,
        1,
        1
      ],
      "min": [
        -1,
        -1,
        -1,
        -1
      ],
      "type": "VEC4"
    },
    {
      "bufferView": 1,
      "byteOffset": 98504,
      "componentType": 5126,
      "count": 15688,
      "max": [
        1.0299999713897705,
        1
      ],
      "min": [
        0.00098660588264465332,
        0
      ],
      "type": "VEC2"
    },
    {
      "bufferView": 0,
      "byteOffset": 271248,
      "componentType": 5125,
      "count": 88800,
      "max": [
        15687
      ],
      "min": [
        0
      ],
      "type": "SCALAR"
    },
    {
      "bufferView": 2,
      "byteOffset": 672024,
      "componentType": 5126,
      "count": 312,
      "max": [
        6.1272597312927246,
        6.1151676177978516,
        -149.95571899414062
      ],
      "min": [
        -6.0789432525634766,
        -6.1151666641235352,
        -169.70500183105469
      ],
      "type": "VEC3"
    },
    {
      "bufferView": 2,
      "byteOffset": 675768,
      "componentType": 5126,
      "count": 312,
      "max": [
        0.98331630229949951,
        0.98595690727233887,
        0.99999713897705078
      ],
      "min": [
        -0.98587220907211304,
        -0.98189657926559448,
        -1
      ],
      "type": "VEC3"
    },
    {
      "bufferView": 3,
      "byteOffset": 448016,
      "componentType": 5126,
      "count": 312,
      "max": [
        1,
        0.99999994039535522,
        0.98481941223144531,
        1
      ],
      "min": [
        -0.99821031093597412,
        -0.99999988079071045,
        -0.98480784893035889,
        -1
      ],
      "type": "VEC4"
    },
    {
      "bufferView": 1,
      "byteOffset": 224008,
      "componentType": 5126,
      "count": 312,
      "max": [
        1.9900000095367432,
        1
      ],
      "min": [
        0.00098666548728942871,
        0
      ],
      "type": "VEC2"
    },
    {
      "bufferView": 0,
      "byteOffset": 626448,
      "componentType": 5125,
      "count": 1500,
      "max": [
        311
      ],
      "min": [
        0
      ],
      "type": "SCALAR"
    },
    {
      "bufferView": 2,
      "byteOffset": 679512,
      "componentType": 5126,
      "count": 1248,
      "max": [
        67.519081115722656,
        67.507209777832031,
        -169.825927734375
      ],
      "min": [
        -67.593505859375,
        -67.503921508789062,
        -181.08132934570312
      ],
      "type": "VEC3"
    },
    {
      "bufferView": 2,
      "byteOffset": 694488,
      "componentType": 5126,
      "count": 1248,
      "max": [
        0.98331636190414429,
        0.98595708608627319,
        0.99999713897705078
      ],
      "min": [
        -0.98587226867675781,
        -0.98189669847488403,
        -1
      ],
      "type": "VEC3"
    },
    {
      "bufferView": 3,
      "byteOffset": 453008,
      "componentType": 5126,
      "count": 1248,
      "max": [
        1,
        0.99999994039535522,
        0.98481935262680054,
        1
      ],
      "min": [
        -0.99821043014526367,
        -0.99999994039535522,
        -0.98480772972106934,
        -1
      ],
      "type": "VEC4"
    },
    {
      "bufferView": 1,
      "byteOffset": 226504,
      "componentType": 5126,
      "count": 1248,
      "max": [
        1.9900000095367432,
        1
      ],
      "min": [
        0.00098666548728942871,
        0
      ],
      "type": "VEC2"
    },
    {
      "bufferView": 0,
      "byteOffset": 632448,
      "componentType": 5125,
      "count": 6000,
      "max": [
        1247
      ],
      "min": [
        0
      ],
      "type": "SCALAR"
    },
    {
      "bufferView": 4,
      "componentType": 5126,
      "count": 200,
      "max": [
        6.6666665077209473
      ],
      "min": [
        0.033333335071802139
      ],
      "type": "SCALAR"
    },
    {
      "bufferView": 5,
      "componentType": 5126,
      "count": 200,
      "max": [
        0.49702975153923035,
        0.70705646276473999,
        0.70705646276473999,
        0.70710676908493042
      ],
      "min": [
        -0.70710676908493042,
        -0.48649242520332336,
        -0.48649242520332336,
        -0.49702975153923035
      ],
      "type": "VEC4"
    }
  ],
  "animations": [
    {
      "channels": [
        {
          "sampler": 0,
          "target": {
            "node": 5,
            "path": "rotation"
          }
        }
      ],
      "name": "Take 001",
      "samplers": [
        {
          "input": 30,
          "interpolation": "LINEAR",
          "output": 31
        }
      ]
    }
  ],
  "asset": {
    "extras": {
      "author": "NathanielLDEutc (https://sketchfab.com/NathanielLDEutc)",
      "license": "CC-BY-4.0 (http://creativecommons.org/licenses/by/4.0/)",
      "source": "https://sketchfab.com/models/824473fbea704a0bbc95b19101ff15f9",
      "title": "Rocket Ship"
    },
    "generator": "Sketchfab-3.53.0",
    "version": "2.0"
  },
  "bufferViews": [
    {
      "buffer": 0,
      "byteLength": 656448,
      "byteOffset": 0,
      "name": "floatBufferViews",
      "target": 34963
    },
    {
      "buffer": 0,
      "byteLength": 236488,
      "byteOffset": 656448,
      "byteStride": 8,
      "name": "floatBufferViews",
      "target": 34962
    },
    {
      "buffer": 0,
      "byteLength": 709464,
      "byteOffset": 892936,
      "byteStride": 12,
      "name": "floatBufferViews",
      "target": 34962
    },
    {
      "buffer": 0,
      "byteLength": 472976,
      "byteOffset": 1602400,
      "byteStride": 16,
      "name": "floatBufferViews",
      "target": 34962
    },
    {
      "buffer": 0,
      "byteLength": 800,
      "byteOffset": 2075376,
      "name": "floatBufferViews"
    },
    {
      "buffer": 0,
      "byteLength": 3200,
      "byteOffset": 2076176,
      "byteStride": 16,
      "name": "floatBufferViews"
    }
  ],
  "buffers": [
    {
      "byteLength": 2079376,
      "uri": "scene.bin"
    }
  ],
  "images": [
    {
      "uri": "textures/03_-_Default_metallicRoughness.png"
    },
    {
      "uri": "textures/07_-_Default_metallicRoughness.png"
    }
  ],
  "materials": [
    {
      "doubleSided": true,
      "name": "01_-_Default",
      "pbrMetallicRoughness": {
        "baseColorFactor": [
          0.0925066477,
          0.090827055899999995,
          0.090827055899999995,
          1
        ],
        "metallicFactor": 1,
        "roughnessFactor": 0
      }
    },
    {
      "doubleSided": true,
      "emissiveFactor": [
        0,
        0,
        0
      ],
      "name": "02_-_Default",
      "pbrMetallicRoughness": {
        "baseColorFactor": [
          0.16111610570000001,
          0.16111610570000001,
          0.16111610570000001,
          1
        ],
        "metallicFactor": 1,
        "roughnessFactor": 0
      }
    },
    {
      "doubleSided": true,
      "emissiveFactor": [
        0,
        0,
        0
      ],
      "name": "03_-_Default",
      "pbrMetallicRoughness": {
        "baseColorFactor": [
          0.035640812500000001,
          0.031314749099999997,
          0.031314749099999997,
          1
        ],
        "metallicFactor": 1,
        "metallicRoughnessTexture": {
          "index": 0,
          "texCoord": 0
        },
        "roughnessFactor": 0
      }
    },
    {
      "doubleSided": true,
      "emissiveFactor": [
        0,
        0,
        0
      ],
      "name": "07_-_Default",
      "pbrMetallicRoughness": {
        "baseColorFactor": [
          0.0034381442999999999,
          0.0033093569000000001,
          0.0033093569000000001,
          1
        ],
        "metallicFactor": 1,
        "metallicRoughnessTexture": {
          "index": 1,
          "texCoord": 0
        },
        "roughnessFactor": 0
      }
    },
    {
      "alphaMode": "BLEND",
      "doubleSided": true,
      "emissiveFactor": [
        0,
        0,
        0
      ],
      "name": "09_-_Default",
      "pbrMetallicRoughness": {
        "baseColorFactor": [
          0,
          0.77520961799999999,
          1,
          0.236089939
        ],
        "metallicFactor": 0,
        "roughnessFactor": 1
      }
    },
    {
      "alphaMode": "BLEND",
      "doubleSided": true,
      "emissiveFactor": [
        0,
        0,
        0
      ],
      "name": "08_-_Default",
      "pbrMetallicRoughness": {
        "baseColorFactor": [
          0,
          0.72416643489999999,
          1,
          0.50438262199999995
        ],
        "metallicFactor": 0.38586128050000001,
        "roughnessFactor": 0
      }
    }
  ],
  "meshes": [
    {
      "name": "Cone001_01 - Default_0",
      "primitives": [
        {
          "attributes": {
            "NORMAL": 1,
            "POSITION": 0,
            "TANGENT": 2,
            "TEXCOORD_0": 3
          },
          "indices": 4,
          "material": 0,
          "mode": 4
        }
      ]
    },
    {
      "name": "Cone001_02 - Default_0",
      "primitives": [
        {
          "attributes": {
            "NORMAL": 6,
            "POSITION": 5,
            "TANGENT": 7,
            "TEXCOORD_0": 8
          },
          "indices": 9,
          "material": 1,
          "mode": 4
        }
      ]
    },
    {
      "name": "Cone001_03 - Default_0",
      "primitives": [
        {
          "attributes": {
            "NORMAL": 11,
            "POSITION": 10,
            "TANGENT": 12,
            "TEXCOORD_0": 13
          },
          "indices": 14,
          "material": 2,
          "mode": 4
        }
      ]
    },
    {
      "name": "Cone001_07 - Default_0",
      "primitives": [
        {
          "attributes": {
            "NORMAL": 16,
            "POSITION": 15,
            "TANGENT": 17,
            "TEXCOORD_0": 18
          },
          "indices": 19,
          "material": 3,
          "mode": 4
        }
      ]
    },
    {
      "name": "Cone001_09 - Default_0",
      "primitives": [
        {
          "attributes": {
            "NORMAL": 21,
            "POSITION": 20,
            "TANGENT": 22,
            "TEXCOORD_0": 23
          },
          "indices": 24,
          "material": 4,
          "mode": 4
        }
      ]
    },
    {
      "name": "Cone001_08 - Default_0",
      "primitives": [
        {
          "attributes": {
            "NORMAL": 26,
            "POSITION": 25,
            "TANGENT": 27,
            "TEXCOORD_0": 28
          },
          "indices": 29,
          "material": 5,
          "mode": 4
        }
      ]
    }
  ],
  "nodes": [
    {
      "children": [
        1
      ],
      "name": "RootNode (gltf orientation matrix)",
      "rotation": [
        -0.70710678118654746,
        -0,
        -0,
        0.70710678118654757
      ]
    },
    {
      "children": [
        2
      ],
      "matrix": [
        0.47231799364089966,
        0.79686903953552246,
        0.37671670317649841,
        0,
        -0.63445168733596802,
        0.60404795408248901,
        -0.48228320479393005,
        0,
        -0.61187154054641724,
        -0.01121752243489027,
        0.79087764024734497,
        0,
        104.77922821044922,
        1.9209204912185669,
        35.810897827148438,
        1
      ],
      "name": "RootNode (model correction matrix)"
    },
    {
      "children": [
        3
      ],
      "matrix": [
        1,
        0,
        0,
        0,
        0,
        0,
        1,
        0,
        0,
        -1,
        0,
        0,
        0,
        0,
        0,
        1
      ],
      "name": "c51ca569e8164c7a9693e3f67dc1dff9.fbx"
    },
    {
      "children": [
        4
      ],
      "name": ""
    },
    {
      "children": [
        5,
        12,
        13,
        14,
        15,
        16,
        17,
        18,
        19,
        20,
        21,
        22
      ],
      "name": "RootNode"
    },
    {
      "children": [
        6,
        7,
        8,
        9,
        10,
        11
      ],
      "name": "Cone001",
      "rotation": [
        -0.7071068286895752,
        -0,
        0,
        0.7071068286895752
      ],
      "translation": [
        0,
        207.26834106445312,
        0
      ]
    },
    {
      "mesh": 0,
      "name": "Cone001_01 - Default_0"
    },
    {
      "mesh": 1,
      "name": "Cone001_02 - Default_0"
    },
    {
      "mesh": 2,
      "name": "Cone001_03 - Default_0"
    },
    {
      "mesh": 3,
      "name": "Cone001_07 - Default_0"
    },
    {
      "mesh": 4,
      "name": "Cone001_09 - Default_0"
    },
    {
      "mesh": 5,
      "name": "Cone001_08 - Default_0"
    },
    {
      "name": "Birth 001",
      "rotation": [
        -0.7071068286895752,
        -0,
        0,
        0.7071068286895752
      ]
    },
    {
      "name": "Position Icon 001",
      "rotation": [
        -0.7071068286895752,
        -0,
        0,
        0.7071068286895752
      ]
    },
    {
      "name": "Speed 001",
      "rotation": [
        -0.7071068286895752,
        -0,
        0,
        0.7071068286895752
      ]
    },
    {
      "name": "Rotation 001",
      "rotation": [
        -0.7071068286895752,
        -0,
        0,
        0.7071068286895752
      ]
    },
    {
      "name": "Shape 001",
      "rotation": [
        -0.7071068286895752,
        -0,
        0,
        0.7071068286895752
      ]
    },
    {
      "name": "Render 001",
      "rotation": [
        -0.7071068286895752,
        -0,
        0,
        0.7071068286895752
      ]
    },
    {
      "name": "Display 001",
      "rotation": [
        -0.7071068286895752,
        -0,
        0,
        0.7071068286895752
      ]
    },
    {
      "name": "Event 001",
      "rotation": [
        -0.7071068286895752,
        -0,
        0,
        0.7071068286895752
      ]
    },
    {
      "name": "Event 002",
      "rotation": [
        -0.7071068286895752,
        -0,
        0,
        0.7071068286895752
      ]
    },
    {
      "name": "Display 002",
      "rotation": [
        -0.7071068286895752,
        -0,
        0,
        0.7071068286895752
      ]
    },
    {
      "name": "Spray002",
      "rotation": [
        -0.7071068286895752,
        -0,
        0,
        0.7071068286895752
      ],
      "scale": [
        0.48782381415367126,
        0.2512839138507843,
        1.5354881286621094
      ],
      "translation": [
        -0.80831146240234375,
        51.394916534423828,
        0.28658294677734375
      ]
    }
  ],
  "samplers": [
    {
      "magFilter": 9729,
      "minFilter": 9987,
      "wrapS": 10497,
      "wrapT": 10497
    }
  ],
  "scene": 0,
  "scenes": [
    {
      "name": "OSG_Scene",
      "nodes": [
        0
      ]
    }
  ],
  "textures": [
    {
      "sampler": 0,
      "source": 0
    },
    {
      "sampler": 0,
      "source": 1
    }
  ]
}

